<mxfile host="app.diagrams.net" modified="2021-11-01T11:46:04.791Z" agent="5.0 (Windows NT 10.0; Win64; x64) AppleWebKit/537.36 (KHTML, like Gecko) Chrome/95.0.4638.54 Safari/537.36" etag="2sM33R8PLqHddXYoblpT" version="15.6.3" type="github">
  <diagram id="C5RBs43oDa-KdzZeNtuy" name="Page-1">
    <mxGraphModel dx="842" dy="460" grid="1" gridSize="10" guides="1" tooltips="1" connect="1" arrows="1" fold="1" page="1" pageScale="1" pageWidth="827" pageHeight="1169" backgroundImage="{&quot;src&quot;:&quot;data:image/jpeg;base64,/9j/4AAQSkZJRgABAQAAAQABAAD/2wCEAAoHCBUVEhgSFRUSEhgSEhgYGBkYGBIRGBgYGBkZGhgYGhkcIS4lHB4rHxgYJ0YmLS8xNTU1GiQ7QDszPy40NTEBDAwMEA8QHhISHjErISc0NDQ0NDQ0NDQ0MTQ0NDQ0NDQ0NDQ0MTQ0NDQ0NDQ0NDQ0NDQxNDQ0NDQ0NDQ0NDE0NP/AABEIAKgBKwMBIgACEQEDEQH/xAAcAAABBQEBAQAAAAAAAAAAAAADAAECBAUGBwj/xAA8EAACAQIEAggDBgYCAgMAAAABAgADEQQSITEFQQYiUWFxgZGxEzKhB0JSwdHwFCNicoLhkvFDojOywv/EABoBAAMBAQEBAAAAAAAAAAAAAAABAgMEBQb/xAApEQACAgEEAgEEAQUAAAAAAAAAAQIRAwQSITFBUWEFIoGRwRMjMkKx/9oADAMBAAIRAxEAPwD1qPFHEgsQjxo8AHiiigAooooAKK0UUAFFFFABxFFFABoooPE11RGqOcq01LMx2CqLk+koBq9VUUu7KiqLksQoAHMkzzvpD9ptOnVNPDqKwB1cHTfXLprsRqLcwZxXTjprUxr5FvSoLeyA3L3+8/ly2nGtVFtNJSXshs9Fb7UK5JsiKpa+t72/CDyvpr4xqn2mYo/KtNbG/wApNx5mecNX0sRI5yfKPgXJ3+P+0nFupUGnTuPuKVI7wSxlbC/aLjUZSz/EsQdQvWUXupPmZxYc3sdfpE378riDoOT6N4F0yw2JYU0c52uQpBXQW5nxnTAT5Y4VxWphqqVqZAdDfXYgcmHMcp9B9DellPH0sygJUS2enmzWJ5g2BI8pDVFJnSRRRGSUMZGOTI3iAUUa8V4wJRxIXjgwAKIhIgyQgIeKKKAxRRRRACikM0e8YE7xSN494ASjxhHgAooo0AHijRQAeKNHgIUeNHEAFOJ+1bi3weHvTAbNiRkBt1QptnueWnvO2nh/2w8Y+JixhlN1oIARa/XbViLjsyjSUkJnn2XTXXz0kSi87/Qzq+HdCMRUVXayBgDYnUA900E+zlydXA7OcHNIahJnBG3IS1hsGz6hT8wA8+U77B/Z6AwzvceHOdZwzo7SpLbLm7b7bW28zIeVeDSOF+TzPAdD6z2JXKDbU+Gpm5Q6BgjrvYnunojU1UaC0C1pCyNmjxRSPJekfRB8PZ0JqIxtfmCdrzL4LxKtg8QtamzIyMLjky36ysNmBH676z13iSB6ZG4M8/4vwvfqm45zoi7OeUdrPeeGY5a9FK6G61UVhoRuNrHv0lkmef8A2Q4tmwlWizX+DW6o06quL+mYPO+JmclTBO0MTIExMYNmiGTLRi0EXkS8ADh44aVg8mjRiLSmEBgEMKDACYjyIMUAJRoooDKgeOGlZXk1eArLAaSDQAeSDQAMDJXgQ0lmgBO8V4MtGvAAt48GGj3lAEikM0cGAE4owMcGADieA4ul/E8VqVH1U4lr3ueqjZQPCygT3288XFD4ePrpbVcS+m2hYsv0YQTpMKto9ApMLC1pMuPGZuHrHJtLVFr6azllKzrikgpPdGZ/CSFMdre3tIZF2Ohk0zS0BdiRe95SrMTteA410jw2HBVnDOB8o1Pn9JxOM6bVahyUEA79b/SXGDZlLIlwdsmtx29syuI4QEG4sTzFtphYXimOFi3w3F76jXw0nYcOqismbLlJuGVtx+s6Iqjnm9xV+zJDTxlemf8AyUQ3/B7b/wCc9LJnC9GMPkx2gsPguNO8qdfQTtg4N7EG29iDaEuyI9CYwLtCuZXcySiDPBM8jUeV3eNElkPD0nmatSWaLwA00aFUynTeWFaABwZIQKtCAwGSiiEUAOeWtDLWmKmJh0xEomzXWrCLUmUleGStAdmkryeeUEqyfxZIWW/iRCpKZqxCrKCy8Hkg8oCrCLVgFl0PHDSqtSTV4BZZDSd4BXkg0AC3nm3TTh5TiC1VuBiaSk/3p1Cf+GSei5phdLMJnoCqBdsO/wAQf2WtUH/G5/xET6Guzlcfxanh6WZ2ufuruznsAnH43pjinvkQ018Pzm10jojOrsMwWnYb8ySfynL1ahdXYIahpjMRsqrew0GrtbW2lhMlS4S5N2m+W+BUek2MLaOw9D5Wnf8ACOKPWofidRrpqTaeZ0MI1QFwigZgoAVkLXvcjU7aes9L6A4UpTfNc3ItffbUeRkzNIR4s8847S/msXBux2N+09sBQdaahirMDcCxWmpK2uAx3IuNrz0TpV0dD1PiIouVsw225jv5TFq8Jq5BSNNSim6qwXQ9qnSNS9hs9GQmKchCoqLnF7GzoRe1wy6qb9onf9GBpdhqw31v9ZncE4O4ILACwsBpYAbbTp6eHC+PlLi+eDOcft5MXE13oYl2ByA09DsbOdcvf1bXmXhMfVpYxK2d8hCgpc5ch0Iy9vf2y70upO9RFQgOUe1+ZFmt72lWk5amjsNQwHYbHX8osrdm2mUXGn+T00tcXGxFx4GVqrSWEQrSRW3FNb+NheBrSjjlwytVeU6lSGrTPrmMzYQVpaoVpjNUhqFeUKzo6NSWkeYtCtL9OrJKNJWhFMqI8sK0ADgx4NTJ3gM8vTFS1TxU55a0s068ujDcdFTxEspXmBTxEspiYi1I3kryXx5iripIYqA9xs/GjfGmSMVJfxEA3GoK8KleY4rwqV4BuNlK0OlSZFOtLKVoDs1VeEDzHxPEkpLnqOtNe0nc9gG5PcJzHEenyj/4EDD8b3sf7UB9z5TbHp8mXpCckj0HNKYqVTUa4REWwSxDl7r1sy26gB03N7Svw/En4KM7F2amrM2guWAOgGgGso43ji06guRlYgX7D3zmm1B0dGPG32A4rwxCuQpdQANDqAJRfowjU703enpplHvYibPEaxBuAbQXBMUHV15U3K/STwzdJpHO4Porc5izVLHVidrdg3nSYFFQWtkVRYcpJKoFSw2b3mH0wwGJdUGHZQQ92Dc1ty5X7onH0Pdxya+LxVNmtnQHvIEFRqa5GsRuDoQZ5RxSozE06rVFZSeqhKG+mjAj93m10Tx1NEIZ2Vb2UMS9j4xOMnESnFSPRWdV1mc+LJbQymcfcABg19mBBBHjKlXGhL21ax7OXIm+hhGxSkh+k9SxouCAfiWzXt8wt5bw2Fwudkpqb3qDMbbsTl07FAvOX4lxBnG/yDNpyItt7+U7/odRquRVek1JVW4zrkLsw3UHlqTfbWayjdMyxz2pnWMJUqrLrSvUEDIy66zLxImzXWZWJWCJZj1W1j06kfEpK6SjM18PWmlQqTCw5mrh2gUmbNF5bRpnUGl6mYFFlTJ3glMleAHiStCq8rgyamFnMXUqwy15nBo+aFjs0f4mOMVM7NFmhYrNQYqETFTIzyQqGMLZtriIRK8xEryT40IpZjYD6nkB3xxi5OkuRqR0dLEQXEuP08OhZzdgLhBuTy8LzkavFnOxy32Uf/o8/DaYGIrmpU3LBDudcz9vhPRhoGqc3+BqTLPFOJVKzF6jXep1VHJFO6qOVh6mV2rgoLcxYeUro2Zy19F6q3056nzgKbgDJzGxO3iBOxz2Kl0FHruG4yn8FRcH/wASg21sVGVvqDOK43xTPezbzK4PxrLmoueqTmQ9h+8POHGHNd7L22vPmdRFrI76PUwyUoqj1zGV7DsAHsJgdBy7Ua1RvvV3t4Xl3i1S+HZw2pHVGncD+cFwMGlhFGt2LMTpzJtJvo1rgjXxRSsgJuXqaDwGs3MfXGUTi8AGxPEs1yUw6W7izc/f0m30krhUap+AaAczyA8TYSlKmS432ZXTzgIrUlxaaNSXrgalk39VOvgTPNsl7kFj3gG30/es9mXMuGQEjMUFxy21nAJxsl2VUQBXK3A7DbczRN0YyhFPkxcBjqlJlPWyhxyIBBtcazZ4tjAXIU6NYnUjuNvG49JV43xFHpsuYFrja+hBnPVsSTYm5IUA+WkpK+WYSdOkbLYgajQ5lOo1ux2n0Jhky00U7rTUHyUCfO/RLh74nGUaQ2+Irv2ZEOdt+4Wt3z6LZo5ccEIZjK9QwjNK9RpBRVrmZ2Il2s0z8Q0CWZmJlBjYy7iTKDx2Qy7h3mph3mFReaeHqQBG3ReXabzIpVJcpVJQ7NNXk80po8J8SAzxkGSBggZIGTZhQYGSBgg0kDCxUTvFIXkgZUbbpAPeKBqYgLt1j9P9ynUqk89TPSwfTpSVzdfHkktHE66bDmZTxFcuwJ+VflH5+MG7aWHnBPUCqSdlE9KGKGJUkUkCx2IIGVfmfTwHMwSplTKNLi1/c+MCj6mo3zHYfhHfK2Irludh6X/1Mp5PL/BSQd10yrawHbf9mZ9ckHWM55X08ZucK4AGCvVJAOoTUG3LMfynn586L4XZkYTBvWbJTVnPO1gB3knQTtuAcMr4ZGapkcaEZWZmA57qNPOWsMyoMqKqAclAUegl6liZwZJb+GOGVwlaDU8Sjga72G9wL902ON5aWGZs5GRbqNCLDa/jOdrcOR9UY0id8tip/wAT+VoOrwyrlBfEK6IczKyst1XW257L+UwUGmd0dTGXwaXRv+VRao/Uaq2ax3A5efPzgkqHFYlaYuUptnbvIPUHrrBcd6QYcYbKhXK6ixtmN+0c7/pMbhHHhRf4lNlY2swJ1MW1o23xs6TpZj2oU3uCrWAXX8WgInly1yQFH9XpzP0nevxg4ipmqBchXKUNiCp3Bnn/ABKmtLEVKSNmRKhCHfTkPEA2v3TeDXg5c6apsZ6DDzJG48ZBkYkb305fT3hySbNfTfwYm5B87+kt8PoZmvyBlykkYRTZ1XRKuuBRsSV+J8NS7AEKSoB6oNtNDeehdH+muExhCU3KOR/8bjIx7cp2byM4D4IahUT8VF19VM4fg2KyOpU5GUhlYbgg3BHgZpigsrpjn9p9Ju8q1akz+F8XWvSFQaNlGdfwsR7bydSrMJxcJOL7Qk7FVeZ9d4SrVlCtUkCYCs8p1GhazynUeMlhUeXaFWZIqSxSqxkm/Rqy9SqTAo15epV4FWbaVYT4sy0rwnxpQ7PMAY94LNHzTMyC3kg0CGkw1hc+Xf8A6nRg08s0qX7E3QUHS50HueyV62JJFth2QVSpeBLT3sGlhhXz7I7JM8gWjFoNnm8pFJDu3ISjiqovbfKdt9e0/pHxGItoJRZuxvTScmXL4RSROoXblYd/uZXZDe1wSTYAaknsAEi/r53m9wfDLT/mOMz8htkv39vta05ds8l7VyW3tJ8L4IEIepZiNQu4B7T2nu28ZuZpRHEUtfKbggHraam3ZJrjU7G79R9NJzy0OaT5r9mblZbDya1JnjiCXF7gMdxr4CKtxBVsQrMLG+Ui41795D0Gb0v2I2KWItDYrFfynHahHrpMFMd1c/UdSdMpII7iDz9JYVz8PMzXNc5lHJaS6KB/c2Zu+yy46OUZLc1y/BUYtpv0UOCuKmHNI6tSdtNyVYlgfUsPKZmMwJRgV0ttp++6CwmKNDEZuROVvDkZ0ONs4uOc5dQnCbR2Y1uicszOosrMp2tcgeIPKAFBr2b15zZrYaBTD6zFZC3iYsPS5TdwNAASnhKGs1QbCS5WXHHRYNTKh8JyHEqA6tQaMKhU2AFxa6k9+4v4TqMSbppMbHpamB+Jmb0AA08SZrik1JUZ5IG5wbiTUglRT8ujD8SH5gffxAncNiQwDA3DAEeBnmuBb+Xl7DNzhXFcuGOa5+C4U/2NfKfUET1dfp3PbKK56ZzYmmpR9co6SpWlSrVmenE0f5W9RaQq4ieXPDPG6kqFuT6C1asqO8E9aBapIEw4eESpKHxJNakBGtTrS5SrzDStDpiIAb6YmF/ipgDFRfxkdjs5zNFmgc0PTOXrHU8h2d5mmDDLLKkS3RMC2p9P1g3e+pkHqXgnefR44RxRUUZ9ju8jmgy8gzgC5/2YSmOgjvKmJrg6Lcjt018uyDq1C2+g7P17TK7mc08vopITsR94jzgHb+0+kTPDYamPmPl+s5+ZukX0FwtLL1mAudR3f7ll6uvr5/sWgXe/75wIfl2To3KCpE1ZaL3t4j3BHuYQsdfEwIIGn75/pC39/eCyMVAKpOXzP5R61ckAAfdJ876/URqulu/9AJF/dWHnvByfsdA0JyO211O217zSwtdyFLckVR3BRYCZqN/LPPQnxtrDDiAA0V7jtK2/6kLJGMk3fRaTaasJxCjmBYDUGaWHJVshvbKrITzRhmQ+ht4gznKleqHzZiM3ZqCJq8N4/UUCk9KjWXNZA4YFCTqEZSCoJ5bTz9b/AHVuiqaOnSyjGW1+TVfDnlBLhjeWsLjFc2Zfh3OmpZR3XOvrLyUNfOeOpHqTxuPaK1GjaFyEy4KBJ2llMLy2mkTB8FE0LrMfiqbjkrBB4qSX/wDbN6CdnSwLGwUEk7W5E8/LfymR0u4eKIoUxc5s7sTqSVCqo/8AZvWdOkalmjH2/wDhhlVRb9IwKJsCPD2khiMiutswqU8p5WIOZWHgR9ZXWstyMw03159kkzAz6luEk4to8uO5O0Rw2JM1KGLzDKwPcw1t3a7iZFCgx1Wx9vpzh/k1BznnpCWNTjtkrRLkk+OzUemd1Ibw0PoZWZ4Knin3sB6XhzWDfMFPqD6iefm+mJq8b/DGpPyD+JHFSMaanYlT2HUevKAdSpsRYzzM2myYv8kUmmWhWj/xEo5o15jQy8cTI/xEqZos0VCI3hCb6wFT5T4SK4kW8p6uglGKdhJWFdpXd4OpXgHq27yf3czunlQKIZ6tvHs/WV3e+pgi/bzkWfz+s5ZZLKok7wDPGZx3j6yPmfaYyk2NIdBc7SwrQCwmaVB0DJs8gTfXukGMjeXKV9hRbU3yntUfUW/OWUbqg/0gyqh6gPYR/wDa/tJs/Vy/hNpMHyDJOb5fORfb/I+0VLW3i35Qqpckf1j6gzdfcHQOmmlu3T1FvzksEuwI0bTzH6j2lhqGXXccvyvCU6Y6w2GYj63U+Wk3hie5WZynwNiMGCpt93rD8x6SlWpWYOOZBH966j10muj6dbldW7j2ytXta24IuLciOY8RcSs2GDVE45SuzSxDsay01QZWAOxub2PsfpNtKZUrfw/T990ucJUNQpuNc1NfoLH6iHxOG6txuGHvb858VkyRWXalVcP5PsNu7C3J3fK+CK0+cFxXiNPDUyznMwF8g79Bfx/XsNlxbii4dLFlVrfeuQP8Rqzf0jzInnPFuIGu33suYm7fM7HTM1tBpoANAJ048UskqXR5s5xxRt9+F/LLOK6WYt6gqLVakFJKqhyqL9v4vOVeI8exNcg1arOQuUGwU2uTbQd8AmHBG9rby7hqCjZczT2cOkVprh+zycmeTu3ZRwvCXezfKDzO/pNjC8MpJqxLnv1HptNYcHriiMQ65abGwNx2Ag941t5HsgGCrqR+ZnpYNPiStU68/JyynLroapU6tl05eErK2gOuYcuYPnyj1N8//Vu2QDXux3nRKQRj5Jo9t4RjaVz/ANQiHTXlJjJl0EzywhDjJ94fKe/s8Jns2l/E+msLhnt+/WTOMZxcZdMGhMCDY6EGxjS1ikzD4g3Hzd45NKc+ez4Xik0yk7HijRTABpl4nqMR26jwiim+KTT4KQL4nMwDub77/WKKdLk6KQwf9ix+hiLfsXWKKRbAiWMe8UUpAODFeKKWA2aQJiikyAu0dabDw9h+kZHvf1+sUUuPaEEoexPsJZT5ieRCk+tjFFOzF4FPo6Dh2ESqxDswRApcIrO7IWCnIFVtQWHI7zer8Ew+JdnoVUw4ckgYhlT4jORkVFzXAy5jqL6rpFFHnnKMuGYJHH4lWpVHpsUco2QlSrqSu3WGh7PKU6nO3I3H6RRS2248m0Uju+idS+FUfgd18r5h9GEXSXja4anZbNUf5F7P627h9Yop8k8UZa1xfs+jc3HRqS7o80rs7uXdmdm3Y6n/AEO6WaGBa1xr+/aKKfS4MML6PnMk3Zdo4cDcH6Aju8Jdw9AkhVBGYgAAXJJIAC9pJI9Yop6ThGMbRz232GxCYlQV+HXyUxc5s7IvXKhh935iy3HaZTysfmOh2/pMUU5NPNz3X7NXFcEHNhl/flEqxRTYaExtqZGg+a5ttoIopKf3A+h62g8SB9b+wiVvb3/6iilf7D8F3DVbHx0/WAxFPKxA2Oo8Dt++6KKcP1GK/pqXmyV2DjRRTxyj/9k=&quot;,&quot;width&quot;:&quot;299&quot;,&quot;height&quot;:&quot;168&quot;,&quot;x&quot;:0,&quot;y&quot;:0}" math="0" shadow="0">
      <root>
        <mxCell id="WIyWlLk6GJQsqaUBKTNV-0" />
        <mxCell id="WIyWlLk6GJQsqaUBKTNV-1" parent="WIyWlLk6GJQsqaUBKTNV-0" />
        <mxCell id="zkfFHV4jXpPFQw0GAbJ--0" value="Person" style="swimlane;fontStyle=2;align=center;verticalAlign=top;childLayout=stackLayout;horizontal=1;startSize=26;horizontalStack=0;resizeParent=1;resizeLast=0;collapsible=1;marginBottom=0;rounded=0;shadow=0;strokeWidth=1;" parent="WIyWlLk6GJQsqaUBKTNV-1" vertex="1">
          <mxGeometry x="220" y="120" width="160" height="138" as="geometry">
            <mxRectangle x="230" y="140" width="160" height="26" as="alternateBounds" />
          </mxGeometry>
        </mxCell>
        <mxCell id="zkfFHV4jXpPFQw0GAbJ--1" value="Name" style="text;align=left;verticalAlign=top;spacingLeft=4;spacingRight=4;overflow=hidden;rotatable=0;points=[[0,0.5],[1,0.5]];portConstraint=eastwest;" parent="zkfFHV4jXpPFQw0GAbJ--0" vertex="1">
          <mxGeometry y="26" width="160" height="26" as="geometry" />
        </mxCell>
        <mxCell id="zkfFHV4jXpPFQw0GAbJ--2" value="Phone Number" style="text;align=left;verticalAlign=top;spacingLeft=4;spacingRight=4;overflow=hidden;rotatable=0;points=[[0,0.5],[1,0.5]];portConstraint=eastwest;rounded=0;shadow=0;html=0;" parent="zkfFHV4jXpPFQw0GAbJ--0" vertex="1">
          <mxGeometry y="52" width="160" height="26" as="geometry" />
        </mxCell>
        <mxCell id="zkfFHV4jXpPFQw0GAbJ--3" value="Email Address" style="text;align=left;verticalAlign=top;spacingLeft=4;spacingRight=4;overflow=hidden;rotatable=0;points=[[0,0.5],[1,0.5]];portConstraint=eastwest;rounded=0;shadow=0;html=0;" parent="zkfFHV4jXpPFQw0GAbJ--0" vertex="1">
          <mxGeometry y="78" width="160" height="26" as="geometry" />
        </mxCell>
        <mxCell id="zkfFHV4jXpPFQw0GAbJ--4" value="" style="line;html=1;strokeWidth=1;align=left;verticalAlign=middle;spacingTop=-1;spacingLeft=3;spacingRight=3;rotatable=0;labelPosition=right;points=[];portConstraint=eastwest;" parent="zkfFHV4jXpPFQw0GAbJ--0" vertex="1">
          <mxGeometry y="104" width="160" height="8" as="geometry" />
        </mxCell>
        <mxCell id="zkfFHV4jXpPFQw0GAbJ--5" value="Purchase Parking Pass" style="text;align=left;verticalAlign=top;spacingLeft=4;spacingRight=4;overflow=hidden;rotatable=0;points=[[0,0.5],[1,0.5]];portConstraint=eastwest;" parent="zkfFHV4jXpPFQw0GAbJ--0" vertex="1">
          <mxGeometry y="112" width="160" height="26" as="geometry" />
        </mxCell>
        <mxCell id="zkfFHV4jXpPFQw0GAbJ--6" value="Student" style="swimlane;fontStyle=0;align=center;verticalAlign=top;childLayout=stackLayout;horizontal=1;startSize=26;horizontalStack=0;resizeParent=1;resizeLast=0;collapsible=1;marginBottom=0;rounded=0;shadow=0;strokeWidth=1;" parent="WIyWlLk6GJQsqaUBKTNV-1" vertex="1">
          <mxGeometry x="120" y="360" width="160" height="138" as="geometry">
            <mxRectangle x="130" y="380" width="160" height="26" as="alternateBounds" />
          </mxGeometry>
        </mxCell>
        <mxCell id="zkfFHV4jXpPFQw0GAbJ--7" value="Student Number" style="text;align=left;verticalAlign=top;spacingLeft=4;spacingRight=4;overflow=hidden;rotatable=0;points=[[0,0.5],[1,0.5]];portConstraint=eastwest;" parent="zkfFHV4jXpPFQw0GAbJ--6" vertex="1">
          <mxGeometry y="26" width="160" height="26" as="geometry" />
        </mxCell>
        <mxCell id="zkfFHV4jXpPFQw0GAbJ--8" value="Average Mark" style="text;align=left;verticalAlign=top;spacingLeft=4;spacingRight=4;overflow=hidden;rotatable=0;points=[[0,0.5],[1,0.5]];portConstraint=eastwest;rounded=0;shadow=0;html=0;" parent="zkfFHV4jXpPFQw0GAbJ--6" vertex="1">
          <mxGeometry y="52" width="160" height="26" as="geometry" />
        </mxCell>
        <mxCell id="zkfFHV4jXpPFQw0GAbJ--9" value="" style="line;html=1;strokeWidth=1;align=left;verticalAlign=middle;spacingTop=-1;spacingLeft=3;spacingRight=3;rotatable=0;labelPosition=right;points=[];portConstraint=eastwest;" parent="zkfFHV4jXpPFQw0GAbJ--6" vertex="1">
          <mxGeometry y="78" width="160" height="8" as="geometry" />
        </mxCell>
        <mxCell id="zkfFHV4jXpPFQw0GAbJ--10" value="Is Eligible To Enroll" style="text;align=left;verticalAlign=top;spacingLeft=4;spacingRight=4;overflow=hidden;rotatable=0;points=[[0,0.5],[1,0.5]];portConstraint=eastwest;fontStyle=4" parent="zkfFHV4jXpPFQw0GAbJ--6" vertex="1">
          <mxGeometry y="86" width="160" height="26" as="geometry" />
        </mxCell>
        <mxCell id="zkfFHV4jXpPFQw0GAbJ--11" value="Get Seminars Taken" style="text;align=left;verticalAlign=top;spacingLeft=4;spacingRight=4;overflow=hidden;rotatable=0;points=[[0,0.5],[1,0.5]];portConstraint=eastwest;" parent="zkfFHV4jXpPFQw0GAbJ--6" vertex="1">
          <mxGeometry y="112" width="160" height="26" as="geometry" />
        </mxCell>
        <mxCell id="zkfFHV4jXpPFQw0GAbJ--12" value="" style="endArrow=block;endSize=10;endFill=0;shadow=0;strokeWidth=1;rounded=0;edgeStyle=elbowEdgeStyle;elbow=vertical;" parent="WIyWlLk6GJQsqaUBKTNV-1" source="zkfFHV4jXpPFQw0GAbJ--6" target="zkfFHV4jXpPFQw0GAbJ--0" edge="1">
          <mxGeometry width="160" relative="1" as="geometry">
            <mxPoint x="200" y="203" as="sourcePoint" />
            <mxPoint x="200" y="203" as="targetPoint" />
          </mxGeometry>
        </mxCell>
        <mxCell id="zkfFHV4jXpPFQw0GAbJ--13" value="Professor" style="swimlane;fontStyle=0;align=center;verticalAlign=top;childLayout=stackLayout;horizontal=1;startSize=26;horizontalStack=0;resizeParent=1;resizeLast=0;collapsible=1;marginBottom=0;rounded=0;shadow=0;strokeWidth=1;" parent="WIyWlLk6GJQsqaUBKTNV-1" vertex="1">
          <mxGeometry x="330" y="360" width="160" height="70" as="geometry">
            <mxRectangle x="340" y="380" width="170" height="26" as="alternateBounds" />
          </mxGeometry>
        </mxCell>
        <mxCell id="zkfFHV4jXpPFQw0GAbJ--14" value="Salary" style="text;align=left;verticalAlign=top;spacingLeft=4;spacingRight=4;overflow=hidden;rotatable=0;points=[[0,0.5],[1,0.5]];portConstraint=eastwest;" parent="zkfFHV4jXpPFQw0GAbJ--13" vertex="1">
          <mxGeometry y="26" width="160" height="26" as="geometry" />
        </mxCell>
        <mxCell id="zkfFHV4jXpPFQw0GAbJ--15" value="" style="line;html=1;strokeWidth=1;align=left;verticalAlign=middle;spacingTop=-1;spacingLeft=3;spacingRight=3;rotatable=0;labelPosition=right;points=[];portConstraint=eastwest;" parent="zkfFHV4jXpPFQw0GAbJ--13" vertex="1">
          <mxGeometry y="52" width="160" height="8" as="geometry" />
        </mxCell>
        <mxCell id="zkfFHV4jXpPFQw0GAbJ--16" value="" style="endArrow=block;endSize=10;endFill=0;shadow=0;strokeWidth=1;rounded=0;edgeStyle=elbowEdgeStyle;elbow=vertical;" parent="WIyWlLk6GJQsqaUBKTNV-1" source="zkfFHV4jXpPFQw0GAbJ--13" target="zkfFHV4jXpPFQw0GAbJ--0" edge="1">
          <mxGeometry width="160" relative="1" as="geometry">
            <mxPoint x="210" y="373" as="sourcePoint" />
            <mxPoint x="310" y="271" as="targetPoint" />
          </mxGeometry>
        </mxCell>
        <mxCell id="zkfFHV4jXpPFQw0GAbJ--17" value="Address" style="swimlane;fontStyle=0;align=center;verticalAlign=top;childLayout=stackLayout;horizontal=1;startSize=26;horizontalStack=0;resizeParent=1;resizeLast=0;collapsible=1;marginBottom=0;rounded=0;shadow=0;strokeWidth=1;" parent="WIyWlLk6GJQsqaUBKTNV-1" vertex="1">
          <mxGeometry x="508" y="120" width="160" height="216" as="geometry">
            <mxRectangle x="550" y="140" width="160" height="26" as="alternateBounds" />
          </mxGeometry>
        </mxCell>
        <mxCell id="zkfFHV4jXpPFQw0GAbJ--18" value="Street" style="text;align=left;verticalAlign=top;spacingLeft=4;spacingRight=4;overflow=hidden;rotatable=0;points=[[0,0.5],[1,0.5]];portConstraint=eastwest;" parent="zkfFHV4jXpPFQw0GAbJ--17" vertex="1">
          <mxGeometry y="26" width="160" height="26" as="geometry" />
        </mxCell>
        <mxCell id="zkfFHV4jXpPFQw0GAbJ--19" value="City" style="text;align=left;verticalAlign=top;spacingLeft=4;spacingRight=4;overflow=hidden;rotatable=0;points=[[0,0.5],[1,0.5]];portConstraint=eastwest;rounded=0;shadow=0;html=0;" parent="zkfFHV4jXpPFQw0GAbJ--17" vertex="1">
          <mxGeometry y="52" width="160" height="26" as="geometry" />
        </mxCell>
        <mxCell id="zkfFHV4jXpPFQw0GAbJ--20" value="State" style="text;align=left;verticalAlign=top;spacingLeft=4;spacingRight=4;overflow=hidden;rotatable=0;points=[[0,0.5],[1,0.5]];portConstraint=eastwest;rounded=0;shadow=0;html=0;" parent="zkfFHV4jXpPFQw0GAbJ--17" vertex="1">
          <mxGeometry y="78" width="160" height="26" as="geometry" />
        </mxCell>
        <mxCell id="zkfFHV4jXpPFQw0GAbJ--21" value="Postal Code" style="text;align=left;verticalAlign=top;spacingLeft=4;spacingRight=4;overflow=hidden;rotatable=0;points=[[0,0.5],[1,0.5]];portConstraint=eastwest;rounded=0;shadow=0;html=0;" parent="zkfFHV4jXpPFQw0GAbJ--17" vertex="1">
          <mxGeometry y="104" width="160" height="26" as="geometry" />
        </mxCell>
        <mxCell id="zkfFHV4jXpPFQw0GAbJ--22" value="Country" style="text;align=left;verticalAlign=top;spacingLeft=4;spacingRight=4;overflow=hidden;rotatable=0;points=[[0,0.5],[1,0.5]];portConstraint=eastwest;rounded=0;shadow=0;html=0;" parent="zkfFHV4jXpPFQw0GAbJ--17" vertex="1">
          <mxGeometry y="130" width="160" height="26" as="geometry" />
        </mxCell>
        <mxCell id="zkfFHV4jXpPFQw0GAbJ--23" value="" style="line;html=1;strokeWidth=1;align=left;verticalAlign=middle;spacingTop=-1;spacingLeft=3;spacingRight=3;rotatable=0;labelPosition=right;points=[];portConstraint=eastwest;" parent="zkfFHV4jXpPFQw0GAbJ--17" vertex="1">
          <mxGeometry y="156" width="160" height="8" as="geometry" />
        </mxCell>
        <mxCell id="zkfFHV4jXpPFQw0GAbJ--24" value="Validate" style="text;align=left;verticalAlign=top;spacingLeft=4;spacingRight=4;overflow=hidden;rotatable=0;points=[[0,0.5],[1,0.5]];portConstraint=eastwest;" parent="zkfFHV4jXpPFQw0GAbJ--17" vertex="1">
          <mxGeometry y="164" width="160" height="26" as="geometry" />
        </mxCell>
        <mxCell id="zkfFHV4jXpPFQw0GAbJ--25" value="Output As Label" style="text;align=left;verticalAlign=top;spacingLeft=4;spacingRight=4;overflow=hidden;rotatable=0;points=[[0,0.5],[1,0.5]];portConstraint=eastwest;" parent="zkfFHV4jXpPFQw0GAbJ--17" vertex="1">
          <mxGeometry y="190" width="160" height="26" as="geometry" />
        </mxCell>
        <mxCell id="zkfFHV4jXpPFQw0GAbJ--26" value="" style="endArrow=open;shadow=0;strokeWidth=1;rounded=0;endFill=1;edgeStyle=elbowEdgeStyle;elbow=vertical;" parent="WIyWlLk6GJQsqaUBKTNV-1" source="zkfFHV4jXpPFQw0GAbJ--0" target="zkfFHV4jXpPFQw0GAbJ--17" edge="1">
          <mxGeometry x="0.5" y="41" relative="1" as="geometry">
            <mxPoint x="380" y="192" as="sourcePoint" />
            <mxPoint x="540" y="192" as="targetPoint" />
            <mxPoint x="-40" y="32" as="offset" />
          </mxGeometry>
        </mxCell>
        <mxCell id="zkfFHV4jXpPFQw0GAbJ--27" value="0..1" style="resizable=0;align=left;verticalAlign=bottom;labelBackgroundColor=none;fontSize=12;" parent="zkfFHV4jXpPFQw0GAbJ--26" connectable="0" vertex="1">
          <mxGeometry x="-1" relative="1" as="geometry">
            <mxPoint y="4" as="offset" />
          </mxGeometry>
        </mxCell>
        <mxCell id="zkfFHV4jXpPFQw0GAbJ--28" value="1" style="resizable=0;align=right;verticalAlign=bottom;labelBackgroundColor=none;fontSize=12;" parent="zkfFHV4jXpPFQw0GAbJ--26" connectable="0" vertex="1">
          <mxGeometry x="1" relative="1" as="geometry">
            <mxPoint x="-7" y="4" as="offset" />
          </mxGeometry>
        </mxCell>
        <mxCell id="zkfFHV4jXpPFQw0GAbJ--29" value="lives at" style="text;html=1;resizable=0;points=[];;align=center;verticalAlign=middle;labelBackgroundColor=none;rounded=0;shadow=0;strokeWidth=1;fontSize=12;" parent="zkfFHV4jXpPFQw0GAbJ--26" vertex="1" connectable="0">
          <mxGeometry x="0.5" y="49" relative="1" as="geometry">
            <mxPoint x="-38" y="40" as="offset" />
          </mxGeometry>
        </mxCell>
      </root>
    </mxGraphModel>
  </diagram>
</mxfile>
